<mxfile host="app.diagrams.net" modified="2024-03-13T12:49:52.974Z" agent="Mozilla/5.0 (Windows NT 10.0; Win64; x64) AppleWebKit/537.36 (KHTML, like Gecko) Chrome/122.0.0.0 Safari/537.36 Edg/122.0.0.0" etag="H7UBBtD5Jo1W5uQqILqc" version="24.0.1" type="github">
  <diagram name="第 1 页" id="oIvPULsW89CgxjvveAxQ">
    <mxGraphModel dx="1146" dy="579" grid="1" gridSize="10" guides="1" tooltips="1" connect="1" arrows="1" fold="1" page="1" pageScale="1" pageWidth="827" pageHeight="1169" math="0" shadow="0">
      <root>
        <mxCell id="0" />
        <mxCell id="1" parent="0" />
        <mxCell id="l-vgJ8nz7C_mg0LJOR4z-7" style="edgeStyle=orthogonalEdgeStyle;rounded=0;orthogonalLoop=1;jettySize=auto;html=1;exitX=0.5;exitY=1;exitDx=0;exitDy=0;" edge="1" parent="1" source="l-vgJ8nz7C_mg0LJOR4z-1" target="l-vgJ8nz7C_mg0LJOR4z-2">
          <mxGeometry relative="1" as="geometry" />
        </mxCell>
        <mxCell id="l-vgJ8nz7C_mg0LJOR4z-8" style="edgeStyle=orthogonalEdgeStyle;rounded=0;orthogonalLoop=1;jettySize=auto;html=1;exitX=0.5;exitY=1;exitDx=0;exitDy=0;" edge="1" parent="1" source="l-vgJ8nz7C_mg0LJOR4z-1" target="l-vgJ8nz7C_mg0LJOR4z-3">
          <mxGeometry relative="1" as="geometry" />
        </mxCell>
        <mxCell id="l-vgJ8nz7C_mg0LJOR4z-9" style="edgeStyle=orthogonalEdgeStyle;rounded=0;orthogonalLoop=1;jettySize=auto;html=1;exitX=0.5;exitY=1;exitDx=0;exitDy=0;" edge="1" parent="1" source="l-vgJ8nz7C_mg0LJOR4z-1" target="l-vgJ8nz7C_mg0LJOR4z-4">
          <mxGeometry relative="1" as="geometry" />
        </mxCell>
        <mxCell id="l-vgJ8nz7C_mg0LJOR4z-10" style="edgeStyle=orthogonalEdgeStyle;rounded=0;orthogonalLoop=1;jettySize=auto;html=1;exitX=0.5;exitY=1;exitDx=0;exitDy=0;" edge="1" parent="1" source="l-vgJ8nz7C_mg0LJOR4z-1" target="l-vgJ8nz7C_mg0LJOR4z-5">
          <mxGeometry relative="1" as="geometry" />
        </mxCell>
        <mxCell id="l-vgJ8nz7C_mg0LJOR4z-11" style="edgeStyle=orthogonalEdgeStyle;rounded=0;orthogonalLoop=1;jettySize=auto;html=1;exitX=0.5;exitY=1;exitDx=0;exitDy=0;" edge="1" parent="1" source="l-vgJ8nz7C_mg0LJOR4z-1" target="l-vgJ8nz7C_mg0LJOR4z-6">
          <mxGeometry relative="1" as="geometry" />
        </mxCell>
        <mxCell id="l-vgJ8nz7C_mg0LJOR4z-1" value="云笔记平台架构" style="rounded=1;whiteSpace=wrap;html=1;" vertex="1" parent="1">
          <mxGeometry x="450" y="70" width="120" height="60" as="geometry" />
        </mxCell>
        <mxCell id="l-vgJ8nz7C_mg0LJOR4z-23" style="edgeStyle=orthogonalEdgeStyle;rounded=0;orthogonalLoop=1;jettySize=auto;html=1;exitX=0.5;exitY=1;exitDx=0;exitDy=0;entryX=0.5;entryY=0;entryDx=0;entryDy=0;" edge="1" parent="1" source="l-vgJ8nz7C_mg0LJOR4z-2" target="l-vgJ8nz7C_mg0LJOR4z-12">
          <mxGeometry relative="1" as="geometry" />
        </mxCell>
        <mxCell id="l-vgJ8nz7C_mg0LJOR4z-24" style="edgeStyle=orthogonalEdgeStyle;rounded=0;orthogonalLoop=1;jettySize=auto;html=1;exitX=0.5;exitY=1;exitDx=0;exitDy=0;entryX=0.5;entryY=0;entryDx=0;entryDy=0;" edge="1" parent="1" source="l-vgJ8nz7C_mg0LJOR4z-2" target="l-vgJ8nz7C_mg0LJOR4z-13">
          <mxGeometry relative="1" as="geometry" />
        </mxCell>
        <mxCell id="l-vgJ8nz7C_mg0LJOR4z-26" style="edgeStyle=orthogonalEdgeStyle;rounded=0;orthogonalLoop=1;jettySize=auto;html=1;exitX=0.5;exitY=1;exitDx=0;exitDy=0;entryX=0.5;entryY=0;entryDx=0;entryDy=0;" edge="1" parent="1" source="l-vgJ8nz7C_mg0LJOR4z-2" target="l-vgJ8nz7C_mg0LJOR4z-20">
          <mxGeometry relative="1" as="geometry" />
        </mxCell>
        <mxCell id="l-vgJ8nz7C_mg0LJOR4z-2" value="用户模块" style="rounded=1;whiteSpace=wrap;html=1;" vertex="1" parent="1">
          <mxGeometry x="50" y="230" width="120" height="60" as="geometry" />
        </mxCell>
        <mxCell id="l-vgJ8nz7C_mg0LJOR4z-27" style="edgeStyle=orthogonalEdgeStyle;rounded=0;orthogonalLoop=1;jettySize=auto;html=1;exitX=0.5;exitY=1;exitDx=0;exitDy=0;entryX=0.5;entryY=0;entryDx=0;entryDy=0;" edge="1" parent="1" source="l-vgJ8nz7C_mg0LJOR4z-3" target="l-vgJ8nz7C_mg0LJOR4z-19">
          <mxGeometry relative="1" as="geometry" />
        </mxCell>
        <mxCell id="l-vgJ8nz7C_mg0LJOR4z-28" style="edgeStyle=orthogonalEdgeStyle;rounded=0;orthogonalLoop=1;jettySize=auto;html=1;exitX=0.5;exitY=1;exitDx=0;exitDy=0;" edge="1" parent="1" source="l-vgJ8nz7C_mg0LJOR4z-3" target="l-vgJ8nz7C_mg0LJOR4z-18">
          <mxGeometry relative="1" as="geometry" />
        </mxCell>
        <mxCell id="l-vgJ8nz7C_mg0LJOR4z-29" style="edgeStyle=orthogonalEdgeStyle;rounded=0;orthogonalLoop=1;jettySize=auto;html=1;exitX=0.5;exitY=1;exitDx=0;exitDy=0;" edge="1" parent="1" source="l-vgJ8nz7C_mg0LJOR4z-3" target="l-vgJ8nz7C_mg0LJOR4z-17">
          <mxGeometry relative="1" as="geometry" />
        </mxCell>
        <mxCell id="l-vgJ8nz7C_mg0LJOR4z-30" style="edgeStyle=orthogonalEdgeStyle;rounded=0;orthogonalLoop=1;jettySize=auto;html=1;exitX=0.5;exitY=1;exitDx=0;exitDy=0;" edge="1" parent="1" source="l-vgJ8nz7C_mg0LJOR4z-3" target="l-vgJ8nz7C_mg0LJOR4z-16">
          <mxGeometry relative="1" as="geometry" />
        </mxCell>
        <mxCell id="l-vgJ8nz7C_mg0LJOR4z-31" style="edgeStyle=orthogonalEdgeStyle;rounded=0;orthogonalLoop=1;jettySize=auto;html=1;exitX=0.5;exitY=1;exitDx=0;exitDy=0;entryX=0.5;entryY=0;entryDx=0;entryDy=0;" edge="1" parent="1" source="l-vgJ8nz7C_mg0LJOR4z-3" target="l-vgJ8nz7C_mg0LJOR4z-14">
          <mxGeometry relative="1" as="geometry" />
        </mxCell>
        <mxCell id="l-vgJ8nz7C_mg0LJOR4z-32" style="edgeStyle=orthogonalEdgeStyle;rounded=0;orthogonalLoop=1;jettySize=auto;html=1;exitX=0.5;exitY=1;exitDx=0;exitDy=0;entryX=0.5;entryY=0;entryDx=0;entryDy=0;" edge="1" parent="1" source="l-vgJ8nz7C_mg0LJOR4z-3" target="l-vgJ8nz7C_mg0LJOR4z-15">
          <mxGeometry relative="1" as="geometry" />
        </mxCell>
        <mxCell id="l-vgJ8nz7C_mg0LJOR4z-3" value="笔记模块&lt;span style=&quot;color: rgba(0, 0, 0, 0); font-family: monospace; font-size: 0px; text-align: start; text-wrap: nowrap;&quot;&gt;%3CmxGraphModel%3E%3Croot%3E%3CmxCell%20id%3D%220%22%2F%3E%3CmxCell%20id%3D%221%22%20parent%3D%220%22%2F%3E%3CmxCell%20id%3D%222%22%20value%3D%22%E7%94%A8%E6%88%B7%E6%A8%A1%E5%9D%97%22%20style%3D%22rounded%3D1%3BwhiteSpace%3Dwrap%3Bhtml%3D1%3B%22%20vertex%3D%221%22%20parent%3D%221%22%3E%3CmxGeometry%20x%3D%2250%22%20y%3D%22230%22%20width%3D%22120%22%20height%3D%2260%22%20as%3D%22geometry%22%2F%3E%3C%2FmxCell%3E%3C%2Froot%3E%3C%2FmxGraphModel%3E&lt;/span&gt;" style="rounded=1;whiteSpace=wrap;html=1;" vertex="1" parent="1">
          <mxGeometry x="250" y="230" width="120" height="60" as="geometry" />
        </mxCell>
        <mxCell id="l-vgJ8nz7C_mg0LJOR4z-36" style="edgeStyle=orthogonalEdgeStyle;rounded=0;orthogonalLoop=1;jettySize=auto;html=1;exitX=0.5;exitY=1;exitDx=0;exitDy=0;entryX=0.5;entryY=0;entryDx=0;entryDy=0;" edge="1" parent="1" source="l-vgJ8nz7C_mg0LJOR4z-4" target="l-vgJ8nz7C_mg0LJOR4z-34">
          <mxGeometry relative="1" as="geometry" />
        </mxCell>
        <mxCell id="l-vgJ8nz7C_mg0LJOR4z-37" style="edgeStyle=orthogonalEdgeStyle;rounded=0;orthogonalLoop=1;jettySize=auto;html=1;exitX=0.5;exitY=1;exitDx=0;exitDy=0;" edge="1" parent="1" source="l-vgJ8nz7C_mg0LJOR4z-4" target="l-vgJ8nz7C_mg0LJOR4z-35">
          <mxGeometry relative="1" as="geometry" />
        </mxCell>
        <mxCell id="l-vgJ8nz7C_mg0LJOR4z-4" value="文件存储模块" style="rounded=1;whiteSpace=wrap;html=1;" vertex="1" parent="1">
          <mxGeometry x="450" y="230" width="120" height="60" as="geometry" />
        </mxCell>
        <mxCell id="l-vgJ8nz7C_mg0LJOR4z-44" style="edgeStyle=orthogonalEdgeStyle;rounded=0;orthogonalLoop=1;jettySize=auto;html=1;exitX=0.5;exitY=1;exitDx=0;exitDy=0;entryX=0.25;entryY=0;entryDx=0;entryDy=0;" edge="1" parent="1" source="l-vgJ8nz7C_mg0LJOR4z-5" target="l-vgJ8nz7C_mg0LJOR4z-41">
          <mxGeometry relative="1" as="geometry" />
        </mxCell>
        <mxCell id="l-vgJ8nz7C_mg0LJOR4z-45" style="edgeStyle=orthogonalEdgeStyle;rounded=0;orthogonalLoop=1;jettySize=auto;html=1;exitX=0.5;exitY=1;exitDx=0;exitDy=0;" edge="1" parent="1" source="l-vgJ8nz7C_mg0LJOR4z-5" target="l-vgJ8nz7C_mg0LJOR4z-43">
          <mxGeometry relative="1" as="geometry" />
        </mxCell>
        <mxCell id="l-vgJ8nz7C_mg0LJOR4z-5" value="消息通知模块" style="rounded=1;whiteSpace=wrap;html=1;" vertex="1" parent="1">
          <mxGeometry x="630" y="230" width="120" height="60" as="geometry" />
        </mxCell>
        <mxCell id="l-vgJ8nz7C_mg0LJOR4z-50" style="edgeStyle=orthogonalEdgeStyle;rounded=0;orthogonalLoop=1;jettySize=auto;html=1;exitX=0.5;exitY=1;exitDx=0;exitDy=0;entryX=0.5;entryY=0;entryDx=0;entryDy=0;" edge="1" parent="1" source="l-vgJ8nz7C_mg0LJOR4z-6" target="l-vgJ8nz7C_mg0LJOR4z-48">
          <mxGeometry relative="1" as="geometry" />
        </mxCell>
        <mxCell id="l-vgJ8nz7C_mg0LJOR4z-51" style="edgeStyle=orthogonalEdgeStyle;rounded=0;orthogonalLoop=1;jettySize=auto;html=1;exitX=0.5;exitY=1;exitDx=0;exitDy=0;" edge="1" parent="1" source="l-vgJ8nz7C_mg0LJOR4z-6" target="l-vgJ8nz7C_mg0LJOR4z-49">
          <mxGeometry relative="1" as="geometry" />
        </mxCell>
        <mxCell id="l-vgJ8nz7C_mg0LJOR4z-6" value="配置与监控模块" style="rounded=1;whiteSpace=wrap;html=1;" vertex="1" parent="1">
          <mxGeometry x="800" y="230" width="120" height="60" as="geometry" />
        </mxCell>
        <mxCell id="l-vgJ8nz7C_mg0LJOR4z-12" value="用户注册" style="rounded=1;whiteSpace=wrap;html=1;" vertex="1" parent="1">
          <mxGeometry x="50" y="340" width="20" height="150" as="geometry" />
        </mxCell>
        <mxCell id="l-vgJ8nz7C_mg0LJOR4z-13" value="用户登录" style="rounded=1;whiteSpace=wrap;html=1;" vertex="1" parent="1">
          <mxGeometry x="100" y="340" width="20" height="150" as="geometry" />
        </mxCell>
        <mxCell id="l-vgJ8nz7C_mg0LJOR4z-14" value="笔记搜索" style="rounded=1;whiteSpace=wrap;html=1;" vertex="1" parent="1">
          <mxGeometry x="380" y="330" width="20" height="150" as="geometry" />
        </mxCell>
        <mxCell id="l-vgJ8nz7C_mg0LJOR4z-15" value="笔记分享" style="rounded=1;whiteSpace=wrap;html=1;" vertex="1" parent="1">
          <mxGeometry x="414" y="330" width="20" height="150" as="geometry" />
        </mxCell>
        <mxCell id="l-vgJ8nz7C_mg0LJOR4z-16" value="笔记分类" style="rounded=1;whiteSpace=wrap;html=1;" vertex="1" parent="1">
          <mxGeometry x="340" y="330" width="20" height="150" as="geometry" />
        </mxCell>
        <mxCell id="l-vgJ8nz7C_mg0LJOR4z-17" value="笔记删除" style="rounded=1;whiteSpace=wrap;html=1;" vertex="1" parent="1">
          <mxGeometry x="300" y="330" width="20" height="150" as="geometry" />
        </mxCell>
        <mxCell id="l-vgJ8nz7C_mg0LJOR4z-18" value="笔记编辑" style="rounded=1;whiteSpace=wrap;html=1;" vertex="1" parent="1">
          <mxGeometry x="260" y="330" width="20" height="150" as="geometry" />
        </mxCell>
        <mxCell id="l-vgJ8nz7C_mg0LJOR4z-19" value="笔记创建" style="rounded=1;whiteSpace=wrap;html=1;" vertex="1" parent="1">
          <mxGeometry x="220" y="330" width="20" height="150" as="geometry" />
        </mxCell>
        <mxCell id="l-vgJ8nz7C_mg0LJOR4z-20" value="用户信息管理" style="rounded=1;whiteSpace=wrap;html=1;" vertex="1" parent="1">
          <mxGeometry x="150" y="340" width="20" height="150" as="geometry" />
        </mxCell>
        <mxCell id="l-vgJ8nz7C_mg0LJOR4z-34" value="文件上传" style="rounded=1;whiteSpace=wrap;html=1;" vertex="1" parent="1">
          <mxGeometry x="470" y="330" width="20" height="150" as="geometry" />
        </mxCell>
        <mxCell id="l-vgJ8nz7C_mg0LJOR4z-35" value="w&lt;div&gt;e&lt;/div&gt;&lt;div&gt;b&lt;/div&gt;&lt;div&gt;s&lt;/div&gt;&lt;div&gt;o&lt;/div&gt;&lt;div&gt;c&lt;/div&gt;&lt;div&gt;k&lt;/div&gt;&lt;div&gt;e&lt;/div&gt;&lt;div&gt;t&lt;/div&gt;" style="rounded=1;whiteSpace=wrap;html=1;" vertex="1" parent="1">
          <mxGeometry x="530" y="330" width="20" height="150" as="geometry" />
        </mxCell>
        <mxCell id="l-vgJ8nz7C_mg0LJOR4z-39" style="edgeStyle=orthogonalEdgeStyle;rounded=0;orthogonalLoop=1;jettySize=auto;html=1;exitX=0.5;exitY=1;exitDx=0;exitDy=0;entryX=0.5;entryY=0;entryDx=0;entryDy=0;" edge="1" parent="1" target="l-vgJ8nz7C_mg0LJOR4z-42">
          <mxGeometry relative="1" as="geometry">
            <mxPoint x="690" y="290" as="sourcePoint" />
          </mxGeometry>
        </mxCell>
        <mxCell id="l-vgJ8nz7C_mg0LJOR4z-41" value="共享笔记通知" style="rounded=1;whiteSpace=wrap;html=1;" vertex="1" parent="1">
          <mxGeometry x="630" y="330" width="20" height="150" as="geometry" />
        </mxCell>
        <mxCell id="l-vgJ8nz7C_mg0LJOR4z-42" value="更新提醒" style="rounded=1;whiteSpace=wrap;html=1;" vertex="1" parent="1">
          <mxGeometry x="680" y="330" width="20" height="150" as="geometry" />
        </mxCell>
        <mxCell id="l-vgJ8nz7C_mg0LJOR4z-43" value="系统消息通知" style="rounded=1;whiteSpace=wrap;html=1;" vertex="1" parent="1">
          <mxGeometry x="730" y="330" width="20" height="150" as="geometry" />
        </mxCell>
        <mxCell id="l-vgJ8nz7C_mg0LJOR4z-48" value="日志记录与分析" style="rounded=1;whiteSpace=wrap;html=1;" vertex="1" parent="1">
          <mxGeometry x="820" y="330" width="20" height="150" as="geometry" />
        </mxCell>
        <mxCell id="l-vgJ8nz7C_mg0LJOR4z-49" value="应用配置管理" style="rounded=1;whiteSpace=wrap;html=1;" vertex="1" parent="1">
          <mxGeometry x="880" y="330" width="20" height="150" as="geometry" />
        </mxCell>
      </root>
    </mxGraphModel>
  </diagram>
</mxfile>
